<?xml version="1.0" encoding="utf-8" ?><svg xmlns="http://www.w3.org/2000/svg" xmlns:xlink="http://www.w3.org/1999/xlink" width="1024" height="1024" viewBox="0 0 1024 1024"><path fill="#1E1E1E" d="M0 0L1024 0L1024 1024L0 1024L0 0Z"/><path fill="#0F0E0E" d="M294.782 135.712C305.72 134.839 319.68 135.46 330.79 135.46L392.939 135.503L565.93 135.459L671.815 135.444C697.68 135.412 724.008 133.924 749.515 138.253C824.99 151.06 883.71 216.917 888.577 293.226C889.308 304.688 888.93 316.708 888.926 328.251L888.901 385.475L889.064 553.883L888.976 666.559C888.96 695.695 890.732 726.24 885.142 754.56C879.12 783.546 865.53 810.422 845.754 832.455C815.424 866.5 772.669 886.907 727.125 889.078C717.387 889.649 705.995 889.311 696.131 889.237L652.12 889.149L474.664 889.112L361.336 889.241L321.17 889.371C307.117 889.375 290.277 889.397 276.496 886.944C246.568 881.649 218.545 868.619 195.21 849.146C162.166 821.323 140.003 778.572 136.321 735.61C135.315 723.866 135.573 712.097 135.632 700.323L135.883 651.568L135.747 481.405L135.727 345.983C135.861 322.752 134.195 297.226 138.214 274.571C143.415 245.831 155.997 218.936 174.727 196.525C206.325 159.317 246.387 139.623 294.782 135.712Z"/><path fill="#FEFEFE" d="M358.536 330.507C371.028 330.775 369.722 339.344 369.766 348.942C388.794 349.117 407.822 349.187 426.85 349.151L426.801 348.476C426.486 343.963 425.607 335.991 428.866 333.181C436.163 326.889 445.335 332.969 443.946 342.218C443.735 343.628 443.869 347.812 443.838 349.305L549.262 349.214C563.049 349.227 576.869 349.078 590.644 349.401C601.866 349.664 609.716 355.018 615.529 364.224C623.449 376.766 618.113 385.824 613.922 398.259L602.383 432.459C600.442 438.242 597.642 445.984 596.183 451.74L596.025 452.384C590.693 452.396 585.362 452.369 580.031 452.305L402.575 452.383L349.071 452.469C340.461 452.48 330.64 452.933 322.232 452.132C311.954 451.453 298.778 438.917 299.633 428.185C301.185 408.71 293.932 374.989 306.903 359.457C318.119 346.028 336.437 349.816 351.493 348.987C351.661 341.11 350.554 334.491 358.536 330.507Z"/><path fill="#1E1E1E" d="M358.982 374.393C368.021 372.871 376.593 378.931 378.173 387.96C379.753 396.988 373.748 405.599 364.73 407.237C355.629 408.89 346.923 402.818 345.329 393.707C343.734 384.596 349.861 375.929 358.982 374.393Z"/><path fill="#1E1E1E" d="M431.289 374.34C440.373 373.075 448.756 379.433 449.987 388.522C451.218 397.611 444.828 405.97 435.734 407.167C426.689 408.357 418.385 402.008 417.16 392.968C415.936 383.927 422.253 375.599 431.289 374.34Z"/><path fill="#FEFEFE" d="M343.832 581.25L557.034 581.01C558.583 596.257 558.164 614.946 559.474 630.511C559.951 636.173 559.658 645.029 560.767 650.225C561.254 652.601 562.416 654.787 564.114 656.52C566.83 659.322 570.604 660.722 574.484 660.595C577.281 660.5 579.988 659.575 582.259 657.938C585.384 655.64 594.64 644.751 597.743 641.24L619.76 616.68L619.841 645.764C619.827 657.311 618.145 664.631 609.773 672.982C603.226 678.475 597.253 681.032 588.622 681.029C529.197 681.006 469.713 680.924 410.292 680.919L355.553 681.033C339.387 681.104 319.839 684.039 307.609 671.979C296.157 660.686 298.981 644.94 298.664 630.607C298.155 607.651 295.558 582.252 326.477 581.272C332.091 581.09 338.104 581.236 343.832 581.25Z"/><path fill="#FEFEFE" d="M322.017 468.66C329.833 468.074 343.469 468.523 351.853 468.527L410.787 468.573L590.296 468.65C580.501 498.831 570.405 528.913 560.01 558.893C559.254 561.073 558.47 563.243 557.658 565.403C537.063 564.522 513.257 565.091 492.447 565.116L384.572 565.123L344.044 565.168C333.639 565.178 318.374 566.72 309.775 560.48C303.944 556.248 300.067 549.843 299.023 542.714C296.932 528.053 298.922 505.388 299.106 490.183C299.232 479.724 311.788 470.068 322.017 468.66Z"/><path fill="#FEFEFE" d="M668.761 344.075C685.094 342.788 697.631 353.39 698.41 369.987C698.62 374.477 697.091 378.172 695.449 382.22C699.292 383.902 704.421 385.911 708.257 387.396C726.416 394.42 726.482 399.105 720.25 416.007C711.111 441.1 703.744 466.955 694.082 491.849C689.567 503.482 670.434 497.65 673.583 486.104C675.662 478.48 679.165 469.67 681.732 462.076L701.015 405.094C697.453 403.355 693.547 401.666 689.918 400.015C687.618 404.847 685.03 412.993 683.291 418.138L673.968 445.653L646.557 523.789C639.583 542.07 632.22 567.208 624.582 585.422C622.971 589.262 606.892 605.349 602.871 609.845C595.116 618.516 586.168 628.699 578.1 637.278C577.519 622.866 576.81 608.46 575.975 594.061C575.769 590.659 574.402 572.232 574.831 570.243C576.351 563.186 581.422 550.09 583.967 542.694L611.503 464.815L636.364 393.649C639.779 383.774 643.19 373.947 646.751 364.125C650.893 352.704 656.663 346.558 668.761 344.075Z"/></svg>